<?xml version="1.0" encoding="iso-8859-1"?>
<!-- Generator: Adobe Illustrator 19.0.0, SVG Export Plug-In . SVG Version: 6.00 Build 0)  -->
<svg version="1.1" id="Layer_1" xmlns="http://www.w3.org/2000/svg" xmlns:xlink="http://www.w3.org/1999/xlink" x="0px" y="0px"
	 viewBox="0 0 512.001 512.001" style="enable-background:new 0 0 512.001 512.001;" xml:space="preserve">
<path style="fill:#FFDB6C;" d="M462.508,451.197H44.958L19.506,160.941c0-11.514,15.324-15.481,20.911-5.411l58.118,104.754
	l68.421-210.16c3.343-10.269,17.872-10.269,21.215,0L256.59,199.48l68.421-149.357c3.343-10.269,17.872-10.269,21.215,0
	l68.421,210.16l58.118-104.754c5.585-10.068,20.911-6.103,20.911,5.411L462.508,451.197z"/>
<path style="fill:#FFB966;" d="M472.767,155.529l-39.606,71.386l-9.354,87.11c-5.431,50.577-48.117,88.924-98.983,88.924
	L42.29,420.751l2.67,30.445h417.549l31.169-290.256C493.678,149.426,478.354,145.46,472.767,155.529z"/>
<g>
	<circle style="fill:#FC4C59;" cx="28.284" cy="128.677" r="21.21"/>
	<circle style="fill:#FC4C59;" cx="483.714" cy="128.677" r="21.21"/>
	<circle style="fill:#FC4C59;" cx="177.408" cy="21.21" r="21.21"/>
	<circle style="fill:#FC4C59;" cx="336.26" cy="21.21" r="21.21"/>
</g>
<g>
	<path style="fill:#E83A64;" d="M28.29,132.923c-8.695,0-16.16-5.238-19.433-12.726c-1.137,2.599-1.777,5.465-1.777,8.484
		c0,11.714,9.497,21.21,21.21,21.21s21.21-9.497,21.21-21.21c0-3.019-0.641-5.885-1.776-8.484
		C44.449,127.685,36.985,132.923,28.29,132.923z"/>
	<path style="fill:#E83A64;" d="M483.717,132.923c-8.695,0-16.16-5.238-19.433-12.726c-1.137,2.599-1.777,5.465-1.777,8.484
		c0,11.714,9.497,21.21,21.21,21.21s21.21-9.497,21.21-21.21c0-3.019-0.641-5.885-1.776-8.484
		C499.877,127.685,492.414,132.923,483.717,132.923z"/>
	<path style="fill:#E83A64;" d="M177.406,25.453c-8.695,0-16.16-5.238-19.434-12.726c-1.137,2.599-1.776,5.465-1.776,8.484
		c0,11.714,9.497,21.21,21.21,21.21c11.714,0,21.21-9.497,21.21-21.21c0-3.019-0.641-5.885-1.776-8.484
		C193.566,20.215,186.102,25.453,177.406,25.453z"/>
	<path style="fill:#E83A64;" d="M336.26,25.453c-8.695,0-16.16-5.238-19.433-12.726c-1.137,2.599-1.777,5.465-1.777,8.484
		c0,11.714,9.497,21.21,21.21,21.21s21.21-9.497,21.21-21.21c0-3.019-0.641-5.885-1.776-8.484
		C352.421,20.215,344.956,25.453,336.26,25.453z"/>
</g>
<ellipse style="fill:#FD4DD7;" cx="253.298" cy="329.158" rx="45.602" ry="63.942"/>
<g>
	<circle style="fill:#7C54B8;" cx="363.805" cy="333.598" r="22.166"/>
	<circle style="fill:#7C54B8;" cx="142.792" cy="333.598" r="22.166"/>
</g>
<path style="fill:#E846AA;" d="M253.301,375.375c-23.039,0-42.076-23.962-45.156-55.081c-0.287,2.9-0.447,5.857-0.447,8.867
	c0,35.318,20.417,63.948,45.602,63.948s45.602-28.631,45.602-63.948c0-3.01-0.16-5.969-0.447-8.867
	C295.377,351.413,276.34,375.375,253.301,375.375z"/>
<g>
	<path style="fill:#674799;" d="M363.809,338.024c-9.087,0-16.886-5.474-20.308-13.298c-1.188,2.718-1.857,5.713-1.857,8.867
		c0,12.241,9.924,22.166,22.166,22.166c12.241,0,22.166-9.924,22.166-22.166c0-3.155-0.669-6.151-1.858-8.867
		C380.695,332.55,372.896,338.024,363.809,338.024z"/>
	<path style="fill:#674799;" d="M142.794,338.024c-9.087,0-16.886-5.474-20.308-13.298c-1.188,2.718-1.857,5.713-1.857,8.867
		c0,12.241,9.924,22.166,22.166,22.166c12.241,0,22.166-9.924,22.166-22.166c0-3.155-0.669-6.151-1.858-8.867
		C159.68,332.55,151.88,338.024,142.794,338.024z"/>
</g>
<path style="fill:#FC4C59;" d="M466.039,448.369H47.144c-9.764,0-17.68,7.916-17.68,17.68v28.273c0,9.764,7.916,17.68,17.68,17.68
	h418.895c9.764,0,17.68-7.916,17.68-17.68v-28.273C483.719,456.284,475.803,448.369,466.039,448.369z"/>
<path style="fill:#E83A64;" d="M466.039,448.369h-54.794c9.764,0,17.68,7.916,17.68,17.68v28.273c0,9.764-7.914,17.68-17.68,17.68
	h54.794c9.764,0,17.68-7.916,17.68-17.68v-28.273C483.717,456.284,475.803,448.369,466.039,448.369z"/>
<g>
</g>
<g>
</g>
<g>
</g>
<g>
</g>
<g>
</g>
<g>
</g>
<g>
</g>
<g>
</g>
<g>
</g>
<g>
</g>
<g>
</g>
<g>
</g>
<g>
</g>
<g>
</g>
<g>
</g>
</svg>
